<svg width="currentWidth" height="currentHeight" viewBox="0 0 18 18" fill="none" xmlns="http://www.w3.org/2000/svg" id="fb-icon">
  <path d="M8.99951 0.000244141C4.03783 0.000244141 -0.000488281 4.03856 -0.000488281 9.00024C-0.000488281 13.9619 4.03783 18.0002 8.99951 18.0002C13.9612 18.0002 17.9995 13.9619 17.9995 9.00024C17.9995 4.03856 13.9612 0.000244141 8.99951 0.000244141ZM8.99951 1.50024C13.1505 1.50024 16.4995 4.84923 16.4995 9.00024C16.4995 12.7708 13.7333 15.8712 10.1157 16.4094V11.1873H12.2515L12.5869 9.01782H10.1157V7.83276C10.1157 6.93201 10.4117 6.13208 11.2539 6.13208H12.6074V4.2395C12.3697 4.20725 11.8665 4.13696 10.9155 4.13696C8.92953 4.13696 7.76611 5.18545 7.76611 7.57495V9.01782H5.72412V11.1873H7.76611V16.3904C4.20615 15.8032 1.49951 12.73 1.49951 9.00024C1.49951 4.84923 4.84849 1.50024 8.99951 1.50024Z" fill="currentColor" />
</svg>