<svg width="currentWidth" height="currentHeight" viewBox="0 0 18 18" fill="none" xmlns="http://www.w3.org/2000/svg" id="inst-icon">
  <path d="M5.60205 0.749756C2.93896 0.749756 0.750488 2.9353 0.750488 5.60132V12.3982C0.750488 15.0613 2.93604 17.2498 5.60205 17.2498H12.3989C15.062 17.2498 17.2505 15.0642 17.2505 12.3982V5.60132C17.2505 2.93823 15.0649 0.749756 12.3989 0.749756H5.60205ZM5.60205 2.24976H12.3989C14.2534 2.24976 15.7505 3.74683 15.7505 5.60132V12.3982C15.7505 14.2527 14.2534 15.7498 12.3989 15.7498H5.60205C3.74756 15.7498 2.25049 14.2527 2.25049 12.3982V5.60132C2.25049 3.74683 3.74756 2.24976 5.60205 2.24976ZM13.4302 3.89038C13.0522 3.89038 12.7505 4.19214 12.7505 4.57007C12.7505 4.948 13.0522 5.24976 13.4302 5.24976C13.8081 5.24976 14.1099 4.948 14.1099 4.57007C14.1099 4.19214 13.8081 3.89038 13.4302 3.89038ZM9.00049 4.49976C6.5249 4.49976 4.50049 6.52417 4.50049 8.99975C4.50049 11.4753 6.5249 13.4998 9.00049 13.4998C11.4761 13.4998 13.5005 11.4753 13.5005 8.99975C13.5005 6.52417 11.4761 4.49976 9.00049 4.49976ZM9.00049 5.99976C10.6675 5.99976 12.0005 7.33276 12.0005 8.99975C12.0005 10.6667 10.6675 11.9998 9.00049 11.9998C7.3335 11.9998 6.00049 10.6667 6.00049 8.99975C6.00049 7.33276 7.3335 5.99976 9.00049 5.99976Z" fill="currentColor" />
</svg>