<svg width="currentWidth" height="currentHeight" viewBox="0 0 18 18" fill="none" xmlns="http://www.w3.org/2000/svg" id="vk-icon">
  <path d="M3.81152 0.749756C2.12988 0.749756 0.75 2.12964 0.75 3.81128V14.1882C0.75 15.8699 2.12988 17.2498 3.81152 17.2498H14.1885C15.8701 17.2498 17.25 15.8699 17.25 14.1882V3.81128C17.25 2.12964 15.8701 0.749756 14.1885 0.749756H3.81152ZM3.81152 2.24976H14.1885C15.0586 2.24976 15.75 2.94116 15.75 3.81128V14.1882C15.75 15.0583 15.0586 15.7498 14.1885 15.7498H3.81152C2.94141 15.7498 2.25 15.0583 2.25 14.1882V3.81128C2.25 2.94116 2.94141 2.24976 3.81152 2.24976ZM8.78906 6.17261C8.23828 6.16675 7.76953 6.17261 7.50586 6.30151C7.33008 6.38647 7.19531 6.57983 7.27734 6.58862C7.37988 6.60327 7.61133 6.65308 7.73437 6.82007C7.89258 7.03394 7.88672 7.51733 7.88672 7.51733C7.88672 7.51733 7.97461 8.84741 7.67285 9.0144C7.46484 9.12866 7.18066 8.89722 6.56543 7.8396C6.25195 7.29468 6.01465 6.69409 6.01465 6.69409C6.01465 6.69409 5.9707 6.58276 5.88867 6.52417C5.78906 6.45093 5.65137 6.42749 5.65137 6.42749L4.18359 6.43628C4.18359 6.43628 3.96387 6.44507 3.88477 6.53882C3.81152 6.62671 3.87891 6.79956 3.87891 6.79956C3.87891 6.79956 5.02734 9.48608 6.32812 10.8396C7.52051 12.0818 8.87402 11.9998 8.87402 11.9998H9.48926C9.48926 11.9998 9.67383 11.9792 9.76758 11.8796C9.85547 11.7859 9.85254 11.6101 9.85254 11.6101C9.85254 11.6101 9.84082 10.7869 10.2217 10.6638C10.5996 10.5466 11.0801 11.4607 11.5928 11.8123C11.9824 12.0789 12.2783 12.0203 12.2783 12.0203L13.6494 11.9998C13.6494 11.9998 14.3643 11.9558 14.0244 11.3904C13.998 11.3464 13.8281 10.9744 13.0078 10.2126C12.1465 9.41577 12.2607 9.54468 13.2979 8.16479C13.9277 7.32397 14.1797 6.81128 14.1006 6.58862C14.0244 6.38062 13.5615 6.43628 13.5615 6.43628L12.0176 6.44507C12.0176 6.44507 11.9033 6.43042 11.8184 6.48022C11.7363 6.53003 11.6836 6.64722 11.6836 6.64722C11.6836 6.64722 11.4375 7.29761 11.1123 7.85132C10.4268 9.01733 10.1484 9.08179 10.0371 9.00854C9.77637 8.83862 9.84082 8.32886 9.84082 7.96851C9.84082 6.83472 10.0137 6.36597 9.50683 6.24292C9.33984 6.2019 9.2168 6.17554 8.78906 6.17261Z" fill="currentColor" />
</svg>